HIERARCHY
ROOT Model_Hips
{
	OFFSET 0.000000 96.915077 0.000000
	CHANNELS 6 Xposition Yposition Zposition Xrotation Yrotation Zrotation
	JOINT Model_Spine
	{
		OFFSET 0.000000 11.137703 -1.289900
		CHANNELS 3 Xrotation Yrotation Zrotation
		JOINT Model_Spine1
		{
			OFFSET 0.000000 12.993942 -1.504922
			CHANNELS 3 Xrotation Yrotation Zrotation
			JOINT Model_Spine2
			{
				OFFSET 0.000000 14.850220 -1.719911
				CHANNELS 3 Xrotation Yrotation Zrotation
				JOINT Model_Neck
				{
					OFFSET 0.000000 16.706543 -1.934903
					CHANNELS 3 Xrotation Yrotation Zrotation
					JOINT Model_Head
					{
						OFFSET 0.000000 10.471298 2.002100
						CHANNELS 3 Xrotation Yrotation Zrotation
						JOINT Model_HeadTop_End
						{
							OFFSET 0.000000 20.842606 3.985100
							CHANNELS 3 Xrotation Yrotation Zrotation
							End Site
							{
								OFFSET 0.000000 21.220154 0.000000
							}
						}
					}
				}
				JOINT Model_LeftShoulder
				{
					OFFSET 7.008500 14.768600 -1.919946
					CHANNELS 3 Xrotation Yrotation Zrotation
					JOINT Model_LeftArm
					{
						OFFSET 14.126271 -3.718048 0.029937
						CHANNELS 3 Xrotation Yrotation Zrotation
						JOINT Model_LeftForeArm
						{
							OFFSET 28.282801 0.000000 0.000000
							CHANNELS 3 Xrotation Yrotation Zrotation
							JOINT Model_LeftHand
							{
								OFFSET 26.204689 0.000000 0.000000
								CHANNELS 3 Xrotation Yrotation Zrotation
								End Site
								{
									OFFSET 26.204704 0.000000 0.000000
								}
							}
						}
					}
				}
				JOINT Model_RightShoulder
				{
					OFFSET -7.008500 14.768555 -1.949840
					CHANNELS 3 Xrotation Yrotation Zrotation
					JOINT Model_RightArm
					{
						OFFSET -14.126281 -3.718018 -0.029932
						CHANNELS 3 Xrotation Yrotation Zrotation
						JOINT Model_RightForeArm
						{
							OFFSET -28.283798 0.000000 -0.000001
							CHANNELS 3 Xrotation Yrotation Zrotation
							JOINT Model_RightHand
							{
								OFFSET -26.204193 0.000000 -0.000001
								CHANNELS 3 Xrotation Yrotation Zrotation
								End Site
								{
									OFFSET -26.204208 0.000000 -0.000001
								}
							}
						}
					}
				}
			}
		}
	}
	JOINT Model_LeftUpLeg
	{
		OFFSET 8.327700 -6.193199 -0.402800
		CHANNELS 3 Xrotation Yrotation Zrotation
		JOINT Model_LeftLeg
		{
			OFFSET 0.735802 -42.108742 -0.610721
			CHANNELS 3 Xrotation Yrotation Zrotation
			JOINT Model_LeftFoot
			{
				OFFSET -0.735806 -36.833748 -0.172876
				CHANNELS 3 Xrotation Yrotation Zrotation
				JOINT Model_LeftToeBase
				{
					OFFSET -0.565857 -11.977769 16.297714
					CHANNELS 3 Xrotation Yrotation Zrotation
					JOINT Model_LeftToe_End
					{
						OFFSET -0.111712 -0.312793 7.857784
						CHANNELS 3 Xrotation Yrotation Zrotation
						End Site
						{
							OFFSET -0.111712 -0.312793 7.857784
						}
					}
				}
			}
		}
	}
	JOINT Model_RightUpLeg
	{
		OFFSET -8.327700 -6.193199 -0.516500
		CHANNELS 3 Xrotation Yrotation Zrotation
		JOINT Model_RightLeg
		{
			OFFSET -0.735785 -42.108738 -0.434061
			CHANNELS 3 Xrotation Yrotation Zrotation
			JOINT Model_RightFoot
			{
				OFFSET 0.735776 -36.833748 -0.021630
				CHANNELS 3 Xrotation Yrotation Zrotation
				JOINT Model_RightToeBase
				{
					OFFSET 0.565817 -11.977745 15.903093
					CHANNELS 3 Xrotation Yrotation Zrotation
					JOINT Model_RightToe_End
					{
						OFFSET 0.111702 -0.312791 7.811342
						CHANNELS 3 Xrotation Yrotation Zrotation
						End Site
						{
							OFFSET 0.111702 -0.312791 7.811342
						}
					}
				}
			}
		}
	}
}
MOTION
Frames: 13
Frame Time: 0.016667
0.000730 95.938324 0.333576 -2.261779 0.325801 0.520686 1.790601 1.284585 -0.486003 3.579681 2.533178 -0.673650 3.579682 2.533181 -0.673650 -0.813615 -0.452687 0.065522 -0.813607 -0.452686 0.065522 0.000000 -0.000000 0.000000 0.662918 -2.643743 -20.148819 -3.947860 2.327079 -62.262618 16.631531 -11.938839 3.788277 -0.000000 0.000000 0.000001 0.442775 8.235285 13.151834 -0.624808 8.808431 59.469952 19.131648 19.317121 -6.825245 -0.000002 0.000001 0.000001 -9.030090 2.069080 -5.577825 21.905188 6.559751 0.333928 -12.745882 -0.379706 3.755011 3.382028 -0.000002 0.000000 0.000000 -0.000001 -0.000000 -19.037238 -6.295498 1.200361 61.481552 -19.864780 -1.061062 1.559532 0.140058 -5.339576 -20.696279 -4.803182 15.596223 -0.000000 0.000002 -0.000000 
-0.048049 96.012604 1.997051 -1.569151 0.910825 -0.006298 1.700636 1.131411 -0.390675 3.399178 2.244558 -0.519309 3.399178 2.244557 -0.519309 -0.934372 -0.597343 0.143515 -0.934377 -0.597342 0.143515 -0.000000 0.000000 -0.000000 0.635113 -2.874596 -19.911719 -4.197922 2.062423 -62.171339 17.002069 -11.809044 3.839729 -0.000001 0.000000 -0.000000 0.445944 7.558383 13.379097 0.722456 8.458784 59.983814 20.046549 18.842330 -6.999882 0.000003 0.000001 -0.000001 -8.524272 2.490203 -4.887280 21.728826 5.404505 0.340762 -13.295168 -0.393295 4.011504 3.212369 0.000011 -0.000002 -0.000000 -0.000000 -0.000000 -21.755524 -5.739306 2.440415 57.948732 -19.318849 -0.955588 0.072011 0.226217 -5.905912 -20.972808 -4.322824 13.210828 0.000001 0.000002 0.000000 
-0.086403 96.033745 3.671187 -0.762121 1.364647 -0.514041 1.597352 0.995599 -0.296065 3.192423 1.986986 -0.372423 3.192420 1.986987 -0.372422 -1.104754 -0.746836 0.211334 -1.104752 -0.746837 0.211334 -0.000000 -0.000000 0.000000 0.618812 -3.005144 -19.727224 -4.385742 1.735774 -62.068442 16.935813 -11.698583 3.790446 -0.000000 0.000000 -0.000000 0.453581 6.864988 13.602411 2.120183 7.957508 60.492103 20.878065 18.418882 -7.158948 -0.000000 0.000000 0.000000 -8.247759 2.881927 -4.252903 21.707736 4.348093 0.343309 -13.658460 -0.463380 4.465901 2.397775 0.009574 0.138501 0.000000 0.000000 -0.000000 -24.415254 -5.166954 3.577363 54.129290 -18.362699 -0.901486 -2.110378 0.350384 -6.437219 -16.211439 -2.773227 10.987023 -0.000001 0.000001 -0.000000 
-0.121886 96.011818 5.352501 0.090375 1.681644 -0.945721 1.488491 0.874394 -0.210183 2.974933 1.753448 -0.248717 2.974933 1.753449 -0.248717 -1.292171 -0.898794 0.259339 -1.292164 -0.898791 0.259338 -0.000000 0.000000 -0.000000 0.608329 -3.082254 -19.568215 -4.538645 1.374254 -61.959542 16.628259 -11.599490 3.687024 -0.000001 0.000000 0.000000 0.465901 6.171642 13.815261 3.536977 7.376983 61.034085 21.680590 18.014453 -7.308833 0.000003 0.000002 -0.000000 -8.076605 3.173390 -3.747341 21.817275 3.411247 0.341973 -14.091821 -0.562802 5.089080 0.915751 0.021452 -1.329992 -0.000000 0.000000 -0.000000 -26.469430 -4.589342 4.540087 48.731590 -16.556319 -0.867186 -2.849874 0.448496 -7.401322 -11.016670 -1.588401 9.073299 -0.000001 0.000001 0.000001 
-0.165058 95.957352 7.041803 0.905332 1.880593 -1.247973 1.383735 0.759518 -0.141442 2.766048 1.526033 -0.164325 2.766049 1.526035 -0.164324 -1.463166 -1.049806 0.278191 -1.463154 -1.049807 0.278192 0.000000 -0.000000 -0.000000 0.602739 -3.105114 -19.435175 -4.654891 0.979203 -61.844706 16.077674 -11.510989 3.530309 0.000001 -0.000000 -0.000001 0.481899 5.486074 14.011150 4.981202 6.717185 61.605212 22.463280 17.622272 -7.450745 0.000002 0.000000 -0.000000 -7.884394 3.303806 -3.381358 22.214386 2.624161 0.337332 -15.443783 -0.681070 5.451345 0.510774 0.014024 -1.182523 0.000000 -0.000000 -0.000000 -27.849830 -4.060574 5.274552 42.046518 -14.295525 -0.837583 -2.474915 0.495158 -8.289922 -5.884860 -0.529091 5.312274 0.000000 0.000000 0.000000 
-0.224982 95.879326 8.739124 1.614823 1.985831 -1.388057 1.289952 0.640141 -0.097219 2.579352 1.283124 -0.129298 2.579350 1.283127 -0.129299 -1.592312 -1.195516 0.261752 -1.592306 -1.195518 0.261752 -0.000000 -0.000000 0.000000 0.602380 -3.075037 -19.326005 -4.735365 0.559292 -61.723935 15.311896 -11.428554 3.327012 -0.000000 0.000000 0.000001 0.501505 4.819593 14.183692 6.442984 5.993720 62.202622 23.235059 17.232183 -7.583218 0.000002 0.000000 -0.000000 -7.604776 3.283807 -3.272854 22.687366 2.186262 0.332463 -16.862181 -0.891682 6.221629 0.339938 0.006332 -0.794914 0.000001 0.000000 -0.000000 -28.745910 -3.654920 5.800587 35.071249 -12.041606 -0.779872 -2.613939 0.536731 -8.629918 0.349224 0.000003 -0.000005 0.000001 0.000000 0.000000 
-0.310414 95.782295 10.452513 2.182688 2.006228 -1.361074 1.209927 0.507758 -0.083192 2.420066 1.010076 -0.144346 2.420066 1.010078 -0.144346 -1.671455 -1.332608 0.210177 -1.671457 -1.332608 0.210176 0.000000 0.000000 0.000000 0.606557 -2.995926 -19.239483 -4.783034 0.131620 -61.596374 14.387974 -11.343607 3.089392 0.000000 -0.000000 0.000001 0.523585 4.184060 14.328243 7.897216 5.232856 62.822058 24.004456 16.831116 -7.702038 0.000001 0.000000 0.000000 -7.057824 3.138875 -3.379094 22.933839 2.165037 0.329419 -18.198938 -1.105426 7.035475 0.286477 0.004652 -0.681060 0.000000 0.000000 -0.000000 -28.877650 -3.338280 6.152821 27.161118 -9.974335 -0.663193 -2.090691 0.492904 -8.393797 0.203638 0.000014 0.000003 0.000000 -0.000000 0.000000 
-0.421932 95.664421 12.195586 2.602264 1.926616 -1.189942 1.144192 0.359872 -0.097753 2.289033 0.705324 -0.201819 2.289032 0.705324 -0.201818 -1.712019 -1.459333 0.130950 -1.712021 -1.459330 0.130949 0.000000 0.000000 -0.000000 0.614228 -2.873463 -19.174909 -4.802230 -0.277196 -61.459395 13.390868 -11.244454 2.835427 0.000001 0.000000 0.000001 0.546533 3.590033 14.442259 9.311832 4.464999 63.455995 24.780316 16.403743 -7.801429 0.000003 0.000000 -0.000000 -6.230756 2.941691 -3.654251 22.947127 2.579846 0.330509 -19.461407 -1.296981 7.804590 0.079416 0.014445 -0.203541 0.000000 0.000000 -0.000000 -27.846973 -3.045308 6.499642 17.569249 -8.455753 -0.635290 -0.421854 0.331989 -7.485711 -0.853642 0.000008 0.000002 -0.000000 0.000001 0.000000 
-0.552494 95.511803 13.987988 2.881238 1.713807 -0.908724 1.094443 0.201412 -0.136110 2.189522 0.379943 -0.289915 2.189521 0.379945 -0.289916 -1.739547 -1.575453 0.037818 -1.739542 -1.575452 0.037818 -0.000000 0.000000 0.000000 0.625874 -2.714151 -19.132139 -4.796129 -0.630932 -61.308925 12.425071 -11.119753 2.587500 0.000000 -0.000000 -0.000000 0.570466 3.045642 14.523899 10.656487 3.717401 64.095800 25.571277 15.934633 -7.874645 0.000003 -0.000001 -0.000001 -5.183819 2.787066 -4.055775 22.868925 3.383907 0.334357 -20.738853 -1.471281 8.569621 -0.512393 -0.000312 0.279230 0.000000 -0.000000 -0.000000 -27.293994 -2.800169 6.810105 10.026237 -8.052849 -0.617076 0.384836 0.228658 -5.859518 -2.791293 -0.000011 0.000005 -0.000001 0.000000 0.000000 
-0.697808 95.316330 15.840036 3.028915 1.331956 -0.553695 1.065665 0.041876 -0.187448 2.131593 0.052694 -0.398210 2.131593 0.052695 -0.398211 -1.784926 -1.683032 -0.051402 -1.784919 -1.683032 -0.051404 -0.000000 0.000000 -0.000000 0.639970 -2.525770 -19.110866 -4.763295 -0.885765 -61.140206 11.597496 -10.964052 2.369004 -0.000001 0.000000 0.000000 0.593357 2.554790 14.573539 11.910123 3.008072 64.734696 26.382161 15.413000 -7.915304 0.000003 0.000000 -0.000000 -4.018032 2.761336 -4.501535 22.891381 4.392507 0.331783 -21.989929 -1.553391 9.132451 -1.980994 -0.033054 0.172186 -0.000000 0.000000 -0.000000 -25.817468 -2.479382 7.230406 1.809812 -8.725048 -0.651295 1.687078 0.116326 -4.215557 -5.248832 -0.000003 0.000000 -0.000001 0.000000 0.000001 
-0.840881 95.059700 17.771479 3.052345 0.759248 -0.134001 1.063080 -0.111870 -0.257798 2.125614 -0.257844 -0.521211 2.125615 -0.257845 -0.521212 -1.870403 -1.785718 -0.119088 -1.870401 -1.785718 -0.119087 0.000000 0.000000 0.000000 0.655963 -2.316086 -19.114455 -4.694706 -0.995845 -60.950771 10.994254 -10.783541 2.199705 0.000000 -0.000000 -0.000000 0.614574 2.117282 14.587223 13.065316 2.342105 65.371454 27.208624 14.837464 -7.918639 -0.000003 0.000000 0.000000 -3.591862 2.965985 -4.748776 24.626551 5.244221 0.307811 -22.902944 -1.296201 8.204644 -3.390588 -0.054217 -0.783871 0.000000 -0.000000 -0.000001 -27.345041 -2.693717 7.617171 1.773155 -10.469089 -0.745255 -1.141655 0.134814 -2.283418 -7.592865 -0.000001 0.000005 0.000001 0.000001 0.000001 
-0.972101 94.754395 19.780849 2.960313 -0.008158 0.333688 1.086889 -0.251292 -0.335771 2.172227 -0.540199 -0.658510 2.172226 -0.540199 -0.658510 -1.995532 -1.889026 -0.149705 -1.995525 -1.889028 -0.149704 -0.000000 0.000000 -0.000000 0.673912 -2.093180 -19.146777 -4.573629 -0.921629 -60.742532 10.660584 -10.599278 2.091826 0.000000 0.000000 -0.000000 0.634163 1.728124 14.557911 14.129204 1.711274 66.010992 28.032833 14.219537 -7.882353 0.000001 0.000000 -0.000001 -2.893124 3.439525 -5.233584 26.355265 6.307307 0.271273 -24.211532 -1.314214 8.533527 -3.663423 0.191044 -4.349534 0.000000 0.000000 -0.000000 -28.071787 -2.773625 8.123276 1.704227 -12.729956 -0.865592 -3.754616 0.037173 -1.082625 -9.128990 0.000005 -0.000001 -0.000001 -0.000000 0.000001 
-1.095269 94.411781 21.868847 2.765133 -0.940785 0.850510 1.129326 -0.376546 -0.421918 2.255894 -0.794331 -0.811247 2.255891 -0.794331 -0.811248 -2.139093 -1.997751 -0.139211 -2.139094 -1.997753 -0.139211 0.000000 -0.000001 -0.000000 0.693270 -1.865680 -19.210329 -4.379300 -0.638719 -60.525298 10.593097 -10.445707 2.048560 -0.000003 0.000000 0.000000 0.651640 1.377913 14.479948 15.119880 1.096998 66.662619 28.822500 13.582685 -7.807506 0.000003 0.000000 -0.000000 -2.191392 4.134703 -5.721963 28.445117 7.291095 0.221964 -25.278955 -1.240348 8.569388 -4.801308 0.679294 -7.378045 0.000000 0.000000 -0.000000 -28.055236 -2.773287 8.677347 1.598886 -14.905761 -0.984602 -5.955843 -0.054082 -0.960626 -9.635788 0.000006 -0.000009 -0.000001 0.000002 -0.000001 
